<mxfile host="Electron" agent="Mozilla/5.0 (Windows NT 10.0; Win64; x64) AppleWebKit/537.36 (KHTML, like Gecko) draw.io/24.7.17 Chrome/128.0.6613.36 Electron/32.0.1 Safari/537.36" version="24.7.17">
  <diagram name="Page-1" id="-H_mtQnk-PTXWXPvYvuk">
    <mxGraphModel dx="983" dy="2009" grid="1" gridSize="10" guides="1" tooltips="1" connect="1" arrows="1" fold="1" page="1" pageScale="1" pageWidth="1169" pageHeight="827" math="0" shadow="0">
      <root>
        <mxCell id="0" />
        <mxCell id="1" parent="0" />
        <mxCell id="d-e6jIQ3wyXe82C8wbV5-69" value="Регистрация" style="edgeStyle=orthogonalEdgeStyle;rounded=0;orthogonalLoop=1;jettySize=auto;html=1;entryX=0.5;entryY=1;entryDx=0;entryDy=0;" edge="1" parent="1" source="zA23MoTUsTF4_91t8viU-3" target="d-e6jIQ3wyXe82C8wbV5-64">
          <mxGeometry relative="1" as="geometry" />
        </mxCell>
        <mxCell id="d-e6jIQ3wyXe82C8wbV5-73" value="Запрос или запись" style="edgeStyle=orthogonalEdgeStyle;rounded=0;orthogonalLoop=1;jettySize=auto;html=1;" edge="1" parent="1" source="zA23MoTUsTF4_91t8viU-3" target="d-e6jIQ3wyXe82C8wbV5-55">
          <mxGeometry relative="1" as="geometry">
            <Array as="points">
              <mxPoint x="660" y="120" />
            </Array>
          </mxGeometry>
        </mxCell>
        <mxCell id="d-e6jIQ3wyXe82C8wbV5-76" style="edgeStyle=orthogonalEdgeStyle;rounded=0;orthogonalLoop=1;jettySize=auto;html=1;entryX=0.25;entryY=0;entryDx=0;entryDy=0;" edge="1" parent="1" source="zA23MoTUsTF4_91t8viU-3" target="d-e6jIQ3wyXe82C8wbV5-32">
          <mxGeometry relative="1" as="geometry">
            <Array as="points">
              <mxPoint x="420" y="320" />
              <mxPoint x="930" y="320" />
            </Array>
          </mxGeometry>
        </mxCell>
        <mxCell id="zA23MoTUsTF4_91t8viU-3" value="pymongo-api 1" style="rounded=1;whiteSpace=wrap;html=1;" parent="1" vertex="1">
          <mxGeometry x="360" y="90" width="120" height="60" as="geometry" />
        </mxCell>
        <mxCell id="zA23MoTUsTF4_91t8viU-4" value="Запросить данные,&lt;div&gt;если их нет в кеше&lt;/div&gt;" style="edgeStyle=orthogonalEdgeStyle;rounded=0;orthogonalLoop=1;jettySize=auto;html=1;startArrow=classic;startFill=1;" parent="1" source="zA23MoTUsTF4_91t8viU-3" target="d-e6jIQ3wyXe82C8wbV5-1" edge="1">
          <mxGeometry relative="1" as="geometry">
            <mxPoint x="420" y="480" as="targetPoint" />
            <Array as="points">
              <mxPoint x="420" y="270" />
              <mxPoint x="420" y="270" />
            </Array>
          </mxGeometry>
        </mxCell>
        <mxCell id="d-e6jIQ3wyXe82C8wbV5-1" value="Драйвер 1" style="rounded=1;whiteSpace=wrap;html=1;" vertex="1" parent="1">
          <mxGeometry x="360" y="430" width="120" height="60" as="geometry" />
        </mxCell>
        <mxCell id="d-e6jIQ3wyXe82C8wbV5-5" value="" style="edgeStyle=orthogonalEdgeStyle;rounded=0;orthogonalLoop=1;jettySize=auto;html=1;" edge="1" parent="1" source="d-e6jIQ3wyXe82C8wbV5-1" target="d-e6jIQ3wyXe82C8wbV5-4">
          <mxGeometry relative="1" as="geometry">
            <mxPoint x="420" y="520" as="sourcePoint" />
          </mxGeometry>
        </mxCell>
        <mxCell id="d-e6jIQ3wyXe82C8wbV5-7" value="" style="edgeStyle=orthogonalEdgeStyle;rounded=0;orthogonalLoop=1;jettySize=auto;html=1;" edge="1" parent="1" source="d-e6jIQ3wyXe82C8wbV5-4" target="d-e6jIQ3wyXe82C8wbV5-6">
          <mxGeometry relative="1" as="geometry" />
        </mxCell>
        <mxCell id="d-e6jIQ3wyXe82C8wbV5-9" value="" style="edgeStyle=orthogonalEdgeStyle;rounded=0;orthogonalLoop=1;jettySize=auto;html=1;" edge="1" parent="1" source="d-e6jIQ3wyXe82C8wbV5-4" target="d-e6jIQ3wyXe82C8wbV5-8">
          <mxGeometry relative="1" as="geometry" />
        </mxCell>
        <mxCell id="d-e6jIQ3wyXe82C8wbV5-11" value="" style="edgeStyle=orthogonalEdgeStyle;rounded=0;orthogonalLoop=1;jettySize=auto;html=1;" edge="1" parent="1" source="d-e6jIQ3wyXe82C8wbV5-4" target="d-e6jIQ3wyXe82C8wbV5-10">
          <mxGeometry relative="1" as="geometry" />
        </mxCell>
        <mxCell id="d-e6jIQ3wyXe82C8wbV5-4" value="Роутер 1" style="whiteSpace=wrap;html=1;rounded=1;" vertex="1" parent="1">
          <mxGeometry x="360" y="550" width="120" height="60" as="geometry" />
        </mxCell>
        <mxCell id="d-e6jIQ3wyXe82C8wbV5-14" value="" style="edgeStyle=orthogonalEdgeStyle;rounded=0;orthogonalLoop=1;jettySize=auto;html=1;" edge="1" parent="1" source="d-e6jIQ3wyXe82C8wbV5-6" target="d-e6jIQ3wyXe82C8wbV5-13">
          <mxGeometry relative="1" as="geometry" />
        </mxCell>
        <mxCell id="d-e6jIQ3wyXe82C8wbV5-6" value="Сегмент 1-1" style="whiteSpace=wrap;html=1;rounded=1;" vertex="1" parent="1">
          <mxGeometry x="250" y="660" width="120" height="60" as="geometry" />
        </mxCell>
        <mxCell id="d-e6jIQ3wyXe82C8wbV5-12" style="edgeStyle=orthogonalEdgeStyle;rounded=0;orthogonalLoop=1;jettySize=auto;html=1;" edge="1" parent="1" source="d-e6jIQ3wyXe82C8wbV5-8" target="d-e6jIQ3wyXe82C8wbV5-10">
          <mxGeometry relative="1" as="geometry">
            <Array as="points">
              <mxPoint x="620" y="690" />
            </Array>
          </mxGeometry>
        </mxCell>
        <mxCell id="d-e6jIQ3wyXe82C8wbV5-8" value="Сегмент 1-2" style="whiteSpace=wrap;html=1;rounded=1;" vertex="1" parent="1">
          <mxGeometry x="450" y="660" width="120" height="60" as="geometry" />
        </mxCell>
        <mxCell id="d-e6jIQ3wyXe82C8wbV5-10" value="Сервер конфигураций 1" style="whiteSpace=wrap;html=1;rounded=1;" vertex="1" parent="1">
          <mxGeometry x="560" y="550" width="120" height="60" as="geometry" />
        </mxCell>
        <mxCell id="d-e6jIQ3wyXe82C8wbV5-16" value="" style="edgeStyle=orthogonalEdgeStyle;rounded=0;orthogonalLoop=1;jettySize=auto;html=1;" edge="1" parent="1" source="d-e6jIQ3wyXe82C8wbV5-13" target="d-e6jIQ3wyXe82C8wbV5-15">
          <mxGeometry relative="1" as="geometry" />
        </mxCell>
        <mxCell id="d-e6jIQ3wyXe82C8wbV5-13" value="Реплика 1-1-1&lt;div&gt;(ведущий)&lt;/div&gt;" style="whiteSpace=wrap;html=1;rounded=1;" vertex="1" parent="1">
          <mxGeometry x="250" y="760" width="120" height="60" as="geometry" />
        </mxCell>
        <mxCell id="d-e6jIQ3wyXe82C8wbV5-18" value="" style="edgeStyle=orthogonalEdgeStyle;rounded=0;orthogonalLoop=1;jettySize=auto;html=1;" edge="1" parent="1" source="d-e6jIQ3wyXe82C8wbV5-15" target="d-e6jIQ3wyXe82C8wbV5-17">
          <mxGeometry relative="1" as="geometry" />
        </mxCell>
        <mxCell id="d-e6jIQ3wyXe82C8wbV5-15" value="Реплика 1-1-&lt;span style=&quot;background-color: initial;&quot;&gt;2&lt;/span&gt;&lt;div&gt;(ведомый)&lt;span style=&quot;background-color: initial;&quot;&gt;&lt;br&gt;&lt;/span&gt;&lt;/div&gt;" style="whiteSpace=wrap;html=1;rounded=1;" vertex="1" parent="1">
          <mxGeometry x="250" y="850" width="120" height="60" as="geometry" />
        </mxCell>
        <mxCell id="d-e6jIQ3wyXe82C8wbV5-17" value="Реплика 1-1-3&lt;div&gt;(ведомый)&lt;br&gt;&lt;/div&gt;" style="whiteSpace=wrap;html=1;rounded=1;" vertex="1" parent="1">
          <mxGeometry x="250" y="950" width="120" height="60" as="geometry" />
        </mxCell>
        <mxCell id="d-e6jIQ3wyXe82C8wbV5-19" value="" style="edgeStyle=orthogonalEdgeStyle;rounded=0;orthogonalLoop=1;jettySize=auto;html=1;" edge="1" parent="1" target="d-e6jIQ3wyXe82C8wbV5-21" source="d-e6jIQ3wyXe82C8wbV5-8">
          <mxGeometry relative="1" as="geometry">
            <mxPoint x="510" y="720" as="sourcePoint" />
          </mxGeometry>
        </mxCell>
        <mxCell id="d-e6jIQ3wyXe82C8wbV5-20" value="" style="edgeStyle=orthogonalEdgeStyle;rounded=0;orthogonalLoop=1;jettySize=auto;html=1;" edge="1" parent="1" source="d-e6jIQ3wyXe82C8wbV5-21" target="d-e6jIQ3wyXe82C8wbV5-23">
          <mxGeometry relative="1" as="geometry" />
        </mxCell>
        <mxCell id="d-e6jIQ3wyXe82C8wbV5-21" value="Реплика 1-2-1&lt;div&gt;(&lt;span style=&quot;background-color: initial;&quot;&gt;ведущий&lt;/span&gt;&lt;span style=&quot;background-color: initial;&quot;&gt;)&lt;/span&gt;&lt;/div&gt;" style="whiteSpace=wrap;html=1;rounded=1;" vertex="1" parent="1">
          <mxGeometry x="450" y="760" width="120" height="60" as="geometry" />
        </mxCell>
        <mxCell id="d-e6jIQ3wyXe82C8wbV5-22" value="" style="edgeStyle=orthogonalEdgeStyle;rounded=0;orthogonalLoop=1;jettySize=auto;html=1;" edge="1" parent="1" source="d-e6jIQ3wyXe82C8wbV5-23" target="d-e6jIQ3wyXe82C8wbV5-24">
          <mxGeometry relative="1" as="geometry" />
        </mxCell>
        <mxCell id="d-e6jIQ3wyXe82C8wbV5-23" value="Реплика 1-2-2&lt;div&gt;(ведомый)&lt;/div&gt;" style="whiteSpace=wrap;html=1;rounded=1;" vertex="1" parent="1">
          <mxGeometry x="450" y="850" width="120" height="60" as="geometry" />
        </mxCell>
        <mxCell id="d-e6jIQ3wyXe82C8wbV5-24" value="Реплика 1-2-3&lt;div&gt;(ведомый)&lt;br&gt;&lt;/div&gt;" style="whiteSpace=wrap;html=1;rounded=1;" vertex="1" parent="1">
          <mxGeometry x="450" y="950" width="120" height="60" as="geometry" />
        </mxCell>
        <mxCell id="d-e6jIQ3wyXe82C8wbV5-68" value="Регистрация" style="edgeStyle=orthogonalEdgeStyle;rounded=0;orthogonalLoop=1;jettySize=auto;html=1;" edge="1" parent="1" source="d-e6jIQ3wyXe82C8wbV5-29" target="d-e6jIQ3wyXe82C8wbV5-66">
          <mxGeometry relative="1" as="geometry">
            <mxPoint x="950" y="70" as="targetPoint" />
            <Array as="points">
              <mxPoint x="960" />
              <mxPoint x="730" />
            </Array>
          </mxGeometry>
        </mxCell>
        <mxCell id="d-e6jIQ3wyXe82C8wbV5-72" value="Запрос или запись" style="edgeStyle=orthogonalEdgeStyle;rounded=0;orthogonalLoop=1;jettySize=auto;html=1;" edge="1" parent="1" source="d-e6jIQ3wyXe82C8wbV5-29" target="d-e6jIQ3wyXe82C8wbV5-55">
          <mxGeometry relative="1" as="geometry">
            <Array as="points">
              <mxPoint x="740" y="120" />
            </Array>
          </mxGeometry>
        </mxCell>
        <mxCell id="d-e6jIQ3wyXe82C8wbV5-75" style="edgeStyle=orthogonalEdgeStyle;rounded=0;orthogonalLoop=1;jettySize=auto;html=1;entryX=0.808;entryY=0.067;entryDx=0;entryDy=0;entryPerimeter=0;" edge="1" parent="1" source="d-e6jIQ3wyXe82C8wbV5-29" target="d-e6jIQ3wyXe82C8wbV5-1">
          <mxGeometry relative="1" as="geometry">
            <Array as="points">
              <mxPoint x="960" y="350" />
              <mxPoint x="457" y="350" />
            </Array>
          </mxGeometry>
        </mxCell>
        <mxCell id="d-e6jIQ3wyXe82C8wbV5-29" value="pymongo-api 1" style="rounded=1;whiteSpace=wrap;html=1;" vertex="1" parent="1">
          <mxGeometry x="900" y="90" width="120" height="60" as="geometry" />
        </mxCell>
        <mxCell id="d-e6jIQ3wyXe82C8wbV5-30" value="Запросить данные,&lt;div&gt;если их нет в кеше&lt;/div&gt;" style="edgeStyle=orthogonalEdgeStyle;rounded=0;orthogonalLoop=1;jettySize=auto;html=1;startArrow=classic;startFill=1;" edge="1" parent="1" source="d-e6jIQ3wyXe82C8wbV5-29" target="d-e6jIQ3wyXe82C8wbV5-32">
          <mxGeometry relative="1" as="geometry">
            <mxPoint x="960" y="480" as="targetPoint" />
            <Array as="points">
              <mxPoint x="960" y="270" />
              <mxPoint x="960" y="270" />
            </Array>
          </mxGeometry>
        </mxCell>
        <mxCell id="d-e6jIQ3wyXe82C8wbV5-32" value="Драйвер 1" style="rounded=1;whiteSpace=wrap;html=1;" vertex="1" parent="1">
          <mxGeometry x="900" y="430" width="120" height="60" as="geometry" />
        </mxCell>
        <mxCell id="d-e6jIQ3wyXe82C8wbV5-33" value="" style="edgeStyle=orthogonalEdgeStyle;rounded=0;orthogonalLoop=1;jettySize=auto;html=1;" edge="1" parent="1" source="d-e6jIQ3wyXe82C8wbV5-32" target="d-e6jIQ3wyXe82C8wbV5-38">
          <mxGeometry relative="1" as="geometry">
            <mxPoint x="960" y="520" as="sourcePoint" />
          </mxGeometry>
        </mxCell>
        <mxCell id="d-e6jIQ3wyXe82C8wbV5-35" value="" style="edgeStyle=orthogonalEdgeStyle;rounded=0;orthogonalLoop=1;jettySize=auto;html=1;" edge="1" parent="1" source="d-e6jIQ3wyXe82C8wbV5-38" target="d-e6jIQ3wyXe82C8wbV5-40">
          <mxGeometry relative="1" as="geometry" />
        </mxCell>
        <mxCell id="d-e6jIQ3wyXe82C8wbV5-36" value="" style="edgeStyle=orthogonalEdgeStyle;rounded=0;orthogonalLoop=1;jettySize=auto;html=1;" edge="1" parent="1" source="d-e6jIQ3wyXe82C8wbV5-38" target="d-e6jIQ3wyXe82C8wbV5-42">
          <mxGeometry relative="1" as="geometry" />
        </mxCell>
        <mxCell id="d-e6jIQ3wyXe82C8wbV5-37" value="" style="edgeStyle=orthogonalEdgeStyle;rounded=0;orthogonalLoop=1;jettySize=auto;html=1;" edge="1" parent="1" source="d-e6jIQ3wyXe82C8wbV5-38" target="d-e6jIQ3wyXe82C8wbV5-43">
          <mxGeometry relative="1" as="geometry" />
        </mxCell>
        <mxCell id="d-e6jIQ3wyXe82C8wbV5-38" value="Роутер 2" style="whiteSpace=wrap;html=1;rounded=1;" vertex="1" parent="1">
          <mxGeometry x="900" y="550" width="120" height="60" as="geometry" />
        </mxCell>
        <mxCell id="d-e6jIQ3wyXe82C8wbV5-39" value="" style="edgeStyle=orthogonalEdgeStyle;rounded=0;orthogonalLoop=1;jettySize=auto;html=1;" edge="1" parent="1" source="d-e6jIQ3wyXe82C8wbV5-40" target="d-e6jIQ3wyXe82C8wbV5-45">
          <mxGeometry relative="1" as="geometry" />
        </mxCell>
        <mxCell id="d-e6jIQ3wyXe82C8wbV5-40" value="Сегмент 2-1" style="whiteSpace=wrap;html=1;rounded=1;" vertex="1" parent="1">
          <mxGeometry x="790" y="660" width="120" height="60" as="geometry" />
        </mxCell>
        <mxCell id="d-e6jIQ3wyXe82C8wbV5-41" style="edgeStyle=orthogonalEdgeStyle;rounded=0;orthogonalLoop=1;jettySize=auto;html=1;" edge="1" parent="1" source="d-e6jIQ3wyXe82C8wbV5-42" target="d-e6jIQ3wyXe82C8wbV5-43">
          <mxGeometry relative="1" as="geometry">
            <Array as="points">
              <mxPoint x="1160" y="690" />
            </Array>
          </mxGeometry>
        </mxCell>
        <mxCell id="d-e6jIQ3wyXe82C8wbV5-42" value="Сегмент 2-2" style="whiteSpace=wrap;html=1;rounded=1;" vertex="1" parent="1">
          <mxGeometry x="990" y="660" width="120" height="60" as="geometry" />
        </mxCell>
        <mxCell id="d-e6jIQ3wyXe82C8wbV5-43" value="Сервер конфигураций 2" style="whiteSpace=wrap;html=1;rounded=1;" vertex="1" parent="1">
          <mxGeometry x="1100" y="550" width="120" height="60" as="geometry" />
        </mxCell>
        <mxCell id="d-e6jIQ3wyXe82C8wbV5-44" value="" style="edgeStyle=orthogonalEdgeStyle;rounded=0;orthogonalLoop=1;jettySize=auto;html=1;" edge="1" parent="1" source="d-e6jIQ3wyXe82C8wbV5-45" target="d-e6jIQ3wyXe82C8wbV5-47">
          <mxGeometry relative="1" as="geometry" />
        </mxCell>
        <mxCell id="d-e6jIQ3wyXe82C8wbV5-45" value="Реплика 2-1-1&lt;div&gt;(&lt;span style=&quot;background-color: initial;&quot;&gt;ведущий&lt;/span&gt;&lt;span style=&quot;background-color: initial;&quot;&gt;)&lt;/span&gt;&lt;/div&gt;" style="whiteSpace=wrap;html=1;rounded=1;" vertex="1" parent="1">
          <mxGeometry x="790" y="760" width="120" height="60" as="geometry" />
        </mxCell>
        <mxCell id="d-e6jIQ3wyXe82C8wbV5-46" value="" style="edgeStyle=orthogonalEdgeStyle;rounded=0;orthogonalLoop=1;jettySize=auto;html=1;" edge="1" parent="1" source="d-e6jIQ3wyXe82C8wbV5-47" target="d-e6jIQ3wyXe82C8wbV5-48">
          <mxGeometry relative="1" as="geometry" />
        </mxCell>
        <mxCell id="d-e6jIQ3wyXe82C8wbV5-47" value="Реплика 2-1-&lt;span style=&quot;background-color: initial;&quot;&gt;2&lt;/span&gt;&lt;div&gt;(ведомый)&lt;span style=&quot;background-color: initial;&quot;&gt;&lt;br&gt;&lt;/span&gt;&lt;/div&gt;" style="whiteSpace=wrap;html=1;rounded=1;" vertex="1" parent="1">
          <mxGeometry x="790" y="850" width="120" height="60" as="geometry" />
        </mxCell>
        <mxCell id="d-e6jIQ3wyXe82C8wbV5-48" value="Реплика 2-1-3&lt;div&gt;(ведомый)&lt;br&gt;&lt;/div&gt;" style="whiteSpace=wrap;html=1;rounded=1;" vertex="1" parent="1">
          <mxGeometry x="790" y="950" width="120" height="60" as="geometry" />
        </mxCell>
        <mxCell id="d-e6jIQ3wyXe82C8wbV5-49" value="" style="edgeStyle=orthogonalEdgeStyle;rounded=0;orthogonalLoop=1;jettySize=auto;html=1;" edge="1" parent="1" source="d-e6jIQ3wyXe82C8wbV5-42" target="d-e6jIQ3wyXe82C8wbV5-51">
          <mxGeometry relative="1" as="geometry">
            <mxPoint x="1050" y="720" as="sourcePoint" />
          </mxGeometry>
        </mxCell>
        <mxCell id="d-e6jIQ3wyXe82C8wbV5-50" value="" style="edgeStyle=orthogonalEdgeStyle;rounded=0;orthogonalLoop=1;jettySize=auto;html=1;" edge="1" parent="1" source="d-e6jIQ3wyXe82C8wbV5-51" target="d-e6jIQ3wyXe82C8wbV5-53">
          <mxGeometry relative="1" as="geometry" />
        </mxCell>
        <mxCell id="d-e6jIQ3wyXe82C8wbV5-51" value="Реплика 2-2-1&lt;div&gt;(&lt;span style=&quot;background-color: initial;&quot;&gt;ведущий&lt;/span&gt;&lt;span style=&quot;background-color: initial;&quot;&gt;)&lt;/span&gt;&lt;/div&gt;" style="whiteSpace=wrap;html=1;rounded=1;" vertex="1" parent="1">
          <mxGeometry x="990" y="760" width="120" height="60" as="geometry" />
        </mxCell>
        <mxCell id="d-e6jIQ3wyXe82C8wbV5-52" value="" style="edgeStyle=orthogonalEdgeStyle;rounded=0;orthogonalLoop=1;jettySize=auto;html=1;" edge="1" parent="1" source="d-e6jIQ3wyXe82C8wbV5-53" target="d-e6jIQ3wyXe82C8wbV5-54">
          <mxGeometry relative="1" as="geometry" />
        </mxCell>
        <mxCell id="d-e6jIQ3wyXe82C8wbV5-53" value="Реплика 2-2-2&lt;div&gt;(ведомый)&lt;br&gt;&lt;/div&gt;" style="whiteSpace=wrap;html=1;rounded=1;" vertex="1" parent="1">
          <mxGeometry x="990" y="850" width="120" height="60" as="geometry" />
        </mxCell>
        <mxCell id="d-e6jIQ3wyXe82C8wbV5-54" value="Реплика 2-2-3&lt;div&gt;(ведомый)&lt;br&gt;&lt;/div&gt;" style="whiteSpace=wrap;html=1;rounded=1;" vertex="1" parent="1">
          <mxGeometry x="990" y="950" width="120" height="60" as="geometry" />
        </mxCell>
        <mxCell id="d-e6jIQ3wyXe82C8wbV5-55" value="&lt;img alt=&quot;&quot; src=&quot;data:image/png;base64,iVBORw0KGgoAAAANSUhEUgAAAFYAAABTCAYAAAAFm/BEAAAAAXNSR0IArs4c6QAAAARnQU1BAACxjwv8YQUAAAAJcEhZcwAAFiUAABYlAUlSJPAAACp2SURBVHhe7ZsHQFR39rbpVYoFREEBAQuCKKBiBWzYBQTsChYUsKGiYu8NS4y9t2jsvffexY5dDDawgdKbz3fuEJNsdrOb/27cxP084+FOuQMzzz2/97znzqjG1/gs8RXsZ4qvYD9TfAX7meIr2M8UX8F+pvgK9jPFV7CfKf7HwOb/uP3z438ArAIz78f868QXDvajZD4Xr+7m0Im1cku5FNz7Z8cXDTZfLtfvnmbWss7MWN6Z5Ow4coWqUsN/NtwvHGw6a7YOZtXuKKYK2JlrQ3j24ZJKFP5stf2iwebkvWTumgBmr+3FjNXdmbayE0Nm1JFHXvAxt2CfPyu+YLAfuRd/mvHzGzF/bR9mrApl/NIORH/rzdy1vlKxr2SfP4/uF12xuXnvGT2zHou/H8i0paFMXNyR6NlejJxXi8gJXmTnpha0M5Xg/nddwxcMtqBF3Xq8g5lL27FqV38mLQlk2DeeDP3Gm+HzrBk+2509J6eTlf+U3Pzkgqf9l+ILBKuUnwK1oD3lk8rWQ0PYeyGSoTFeRM+oy9CZNeg3pQKDYlwYMtOKMQtNyM6P++k5/434wsEqhiuHA2emsudCb3adGcqwGZ70neDMgKkuAtaVfpMtiZ6rx/SVbuTmyLM/ijhIfu74nwC79+QUvj8YzI6TUQyeVoe+46vQd6ITkdOcGBhTTrIEw7+152LcMtHlPAErhD9z/A9IQYaAncaO0xHsvzCavmNFBsZXpe8kZyKnVhC4Zek71YpBs2ylqVXgyr015Ofn/MOq/fm3/ufxP6Gx+07FiMZGEDXFi7CR1ekzpiq9xzsRPr4MvcaVpvfkEvSeaEv/qSUYs8BKwP7ShinXlcr/dMbhE9rcH+H/e6i/QLCfQt6wvO/0rBccvzKVDYe70Ht0NbpHu0g602OEAxETyhAxsRQ9x5nTZ4oFA6aXYNS84mR/fKzClU8889Z04Pjludx4vItjsYvZdXosY76pTULScTkA2bJPigD+v8P9gsEWxL3HJ9l8KJxRM+oRMboGXQVsj2ECd3g5kYMKUqk29J5Ugj7TDOgzVZ/IGVqs2taXNxlnGDvHnehvrMWeVSJ6Vk0GT3clakYZyaKMnFuUOSuCyBM5zs8rkI2Cg1GwZgrit4F/QWDl7aiWpjQf0dW8/FRyP77i8KlZbNgfxoDR9QgbVV0FNniQE8FRzvQa5UrPUeXoMcqS0NGlCBtnTeRMcyYsqc6QmMpExRRj0OzCRH1jJxatCkOmS6ObUphB07UZPFOXUXJ/Xv5b8nLzyMxNJjkrjhtPVnPu1jJ5FVnyWv4nwGbx/O0BDl3oy7p9vqze2YJ1uztx6GJfOvUTHR1eh14jPAge4kL7fo606mpHm/Dyct2OkKF2hI2pIBasCsMXlJHpzF5kQZ/+03ToP9OE/jHW9BlfloixFrI1lEpXJ3KKJlOWWbL/9DCOXR7Bvgs9OXS9rXjiosSsLkPWxx/kAP/2yPwFgM2X6njN/rNRbDocyPZTbVi5uxmr9jRlw4EeLNncic79bQgZWFWWfzU6DqyIXy9rVbYOL0WQQO80UJb7bPG0U83pPUWffjFG9J2mT1+53meKsehxcXqNtBawxUSXDcT7mgjcIgybWYbv9vnx3Z62rN3bjHGLLAWsAZOWG5CYfFoW0G+PyX9psHl52bxIOsee02FsOuHJrnMBrBKoK3Y0Z/Z3dVi6OUiA2hIYZkGwgA2MKE+jTkVo2N4U/56l8Q8rQshwc5bs8WXMorKisXqShuISCgvAYvSdbEWPkcXoOVrAjjKn1xgTSQMZMKTZjS/GtGXuLNnSmPkbPVm0xYURc9WZuNiUZVtrk5WTqLJtvxV/WbD5HzO5eW8n2450Z8vRAL4/4s++K92Zt6kRs9Z4s3BDM2au8KFdhBmRE6vKsnfCp5MV9dsa4d+rOM27ajNwWmkW7/QmalZxwiYYEj5Jh9CxegJbXwCai/5aqqq1x8iisi1C6PAihI8xk4HCnAExpoybX47l2/0Fah1ilnqwYF1jLtyYS27+S9HedHmVX5QUpPEh+yqPEzcROcaeaYu8pELrs+FYAPM2NqLzAFnOY2xYtKklfUbZE9jLlBZdiwjM8jQLLkOTziYEhhsza201Zq1zpbfoZugIWe6jTAgeYUCX4TqEjNQnJNqQjlF6dB9hKo2tMOFjzQkbbS5buT7OQDTYkBmrK7N6VxBX728iK7fgNOSnkVixYl+UFMQ9OMquo4P55rtyfLvWmZhVFZi63JG1h1vStJMBPYc4sHBjM3oNNxOAerQINaRhkB0tutni08GCNn312XTGlz6ikV0GG9BxQCEC+xpIUyuqkoWeY0rRtr8pnQZYid8tRddhpnQfaUToKGORA6nYsaYqnY2aZczyPdVYsT2QHMVzqUJxJfnyU9F95fKz8fp1/NtgC46a/BGVBfrjIi0znmXbPaQ6HQWsExMW20qWYfQ8K+r6qTF9eW1W7mxNSGRJug+2Z/g39ajjZ4R3ey16ji3J8n2NBFYxqWAD2vYtTOdBxfEPF3gj7Gja1ZQ2/USTw8vQpo8NXaJK0GWIEV2HG4gUGIo0GNFrtCH9phgybE4RFn0fIk3quiz9AowFYAs+svzkaX8r/g6sUt4Fs7QC7W9L/W9+dXomHzad52n/BcT3ns27DcchNYN05TMRsXiKp/7p2Vm55GfJ782Tx+Rg5OXII7JV9ig4/gW/V/m5YW935m8qL1mROd87MX5xaUkrxi+xoP/Ewuw4047eoxR75USYWKvwod6y/LWZtbEmsza40zmqiMiDJQE9LenU357uQ8QlhFqpmllgHzvaRdrReWBZQoY4SsXaqJpXN4HabYTo70gDVfPqN0VXGps5955d5unbJBkmUkjNzZCJLUteq3L5N8AquyuzdE6u0JEj9Tch7/6jgMs+d5fbdq15qd2Yd5oteK8dSIKBB3F2PlwOG0FW6ivk0PAx7S2554+xv6YP56s24op7fa5UqUOsuydHvbzZXL8xKQePkZ+ZJQ5AOeuUx7LNvizc4sTcDRVUYKevLiv2pjSjFxQRS2QojaQ+YcMtaSdOIKiHOX49jFi0051l+zxp0b0ovj0L4y/3R06oTsN2hWjdsyRBETYC1op2/cvSYYAjHfpXECkoS0ep+vb9jeg8VFvkQEcq1lAqVo/IqcbsOB3N/nOrOHxpF2duHeFm/CVepPxASkayqhxEbWVbUA7/KH5DCj6SnpZKRvp7ckSkc6WCc5Qln5PLh+PnSLTzJUW9ETlazSUDyNIO4oOGHwlGjblZsj7H/TqTt+0gcR6tSbFvwp3CrsSbOfOoWCUelHTlfskqxMntS6Uqc6x8TTY08ofsFPm7SSxYXpnpK22YuqwUMSscmLLcjsnLbBgwTZsWIWpMWFBFBoLCtOhYCP+uRsxY5UG3IWY07aJDm97WBEfbiyMQoGECvZeZeNniAlQORH/xs4PspVrLC9hydI4sS0BYUQJ7GxAyTFcamJZMbiVkOjOg/+Ti0rQGySAykc3H5rDn3BpOXhW4D+JIeH2HtOx0sqTo/lnV/hONlWOSm0LGi0ckX4sl81k8H1MSedk5mvdajcgwCSDDvjvZFiFkabYhTTOIeF0vLhkIROumxJvWI0nbmw/q3iRrepCs78yLIq68KV+f+xau3C1ematWlTlpV4U91k5871KNvKeHGTWtMDELLRm/oDiTFtuIDFjLHG9Gv/GmNGyjxqjZTuJdi9O6uwAZINBEP33aa8jUZUfr3kVo1t2IgN4WAqykwLWQCrURoAI8ypquQ2xFV+1FX0vToE0hVVZvpiZSYSgHRFs1jUVOK8rSjb1ZvX086/ZOYvPxmew6vZyjsZvYd2YJK7aO4PWHRJm8slWV+2+AVda9UuyyzRNtiX/M3choUmuEkFcmmI9eUWT7jyPdKZKcwt14qduUO5pVuazjzA0LDxL1GpOsE8QrvZa8NKpLkmllEotVJd6iKg+Ku/GgdHWula7CcRtn9pZ3ZlslZxZ52DEuxoZREw0ZOFmPQVNMGCDZRyxQYKi+dH81WeKlaRMm1dpdU1IHnzZadOhrTuOOWjTrUQjf8GK0jSwl01YZgVhWBbLTICu6DColaUmrUBM8WqrjUl+DyvV1qeKtRzUfXTxaqBMhGj5/cxsmzQtkxsog1h+YxtbjSzh3dy+Dp7Zg4lIfxs9vSVLaIzIEbI4Un6K3/yj+CdhfhJR9dlYm8QMn86SSH6k2/mS1iOJDzxgoG06KXjMe69blirarSEFNcsbGkOrQkUzj9rwxaMWbwl6S7lKxbjw2cyPeshq3LN24UdqVk1YVOezgwi6nKqxzc2F0+9JETTInNFqPXkON6DHUmDa9jGnRSY9G7dTECZjQuIM6zTtrEdRLH98QbVqHGhMkQNvL6Np5SDnp8hVEO+1EW2W0DRVJCDWVfcTr9jCljr8O9jXVcPIqRCVvI1zq6Upq496oEHPWh8mU1YewYdWInOTC4s1RHLiwjq0nZzJkej0Gz6jJuLmtmb18EB9yX0jVZvw7Ffu3kZqawrOxs3nlEUxymUDe1AwlbkQMGYOmkdF7IhfK1uNWy86k9hzMVYfaZFfpSoptZz66hfO+gi/pFZrw3roOjwq7cMukIg/ta3HerCLHLCpw0E7AVnRlk6s7sz3L0zZclnM3HQK764mO6tOkrVinXlK948oLZH3xs2q06KJOQKgWvt00aNVdXyAWJ3hoOYIHS3OSzt+ur5IONA8pik9HPRoEaeHlry5VXoqy1fVw8iwiFVsEdx9TPJqY0KSjldg7gTrajZ7D3BgSU0OGixrsvfSteOIqMpFVoudIJ/qNrcu0xZ3FvcwWnS2o2AIHpDiFnzH/LrBKseclJ/Fy6FSSm/bjlUMbkq2CSGo1hA8Dx3O4nAdny9bkThUfzpWtxcfWfUmvHkxu9V5kuYaQ7daOVAGbUMyN+8aOXNG15bpZJc6YlmV/YQcOlKnMTkd3trhXY2EVFwICjPFsqk29Vmp4tVCjcaAADtangZ8GQaKHIYOMCB5oKB7VSJqSoYAsQoh42hCxVgrYNr1tpTotaRlijneAvkpHPeW5Pm0L0a5Pcar6mFOpnhFujYtQq4U59QNKsmB9H6nYbvI7yhE9vYH8DUciRtcWXRaYMjJ3HVpeVbGRE73FuUwgW+zi+Zu7efnuhkhCgjT3D+SqprICJ/WbYD+xV4aA3Pw09nk356R1VdK6j+ZN5Y4k6NTnkm4ddumWZrNWSdboWDJZy5SrPSNIDhlIjmd3kKpOc27P+4oteVqyFg+KViZOwF7Ss+eQhiVH9GzZqmvJtpIV2FbBnbUulZld0ZEmPnpUqaFHHdG+Ok3UaOinS42GanSMKELXQXoMnGLOoKnF6T/Jkm7DZMYfWUr8agXR0EpSkSWliouLbBjj7W+AW301qUgNAahNYE+RCmlmdm4aeDQT4C30qdnMlCXfD2TLkXGiyxXoM74q4+e1onH7Ytx/vZveE8rJNFaJbtGODJ/tLQNJE2auDmb2d2HiXkR3F/oxZp4Tp64sF9OkTGQFmvtPwap2kTq/OeNb7lRrxB3rKlwuVZ2nNdtyzLAyh3UrsUWzFIu0zJmsV5RwLV12VvYk338gL8r58cq6FYlWTXlsXps4cQTXTStyUd+eU7o2HNEuxX7NEmzWsWCVUUkWWVizskoN5vvIJFWrMOWd1ajhpUu9xrp4+2jRMdyA8JG6RIwxZHBMcQbFKA2uBO1CbbFz16TvqFoiDxbUDyokE5osez89XOupiXZqU8lTk4qe6lSU285e8ljrwlRrpkMtmdh2n/qWLYdnM2VpMJExtekxypWRs5oyc0UwdQP0COhjRGB/XSKnOKu+FzZpSQumrmjNzDVtxaE0ZOpSP75d14Txs4JJy3r1U0H+Q7DKg0pBK+fIP2ZlcaNdBI/qteKFY10eONWV5V6Nw1aV2KBfim/VjJltYM4IfVM6qKmzdmwkhwpXIdG6BT+YNuSROILbBlW4rl+Rczo2HNew4pC6JXvULNipVozVaibM1xaLJc+faG5LB2dbKrkZULWGMdXr6hDZsiRDWlszsq0jgzvJoBBdnBGTDRg0U028rZoAVmfwN8ptcQ4RplKBhtLU7ESbLalUW41qDfRxlQNUyVOb6k2NBLQmbg01cfURielUhOZditCkUyFqyoFoF2mLuwAv6yEHpKE+FeuKe5CV4tFKmmU3Ayav8CFmlS8TlzRh5BxvYlY2Z8keP2KWtycjP124KZ+RFaD9O7CqKlV+SKrKOjeV64GdeNTYj5deLXhRuzn3PRpxysOTHS7uHHGsyl67yhwv5sh2UwfGSuVO1bXgopYL98R+3dVz46JmWc5ql+GIAD2gLkDVzVmrXoTlGqbMUi/EGA19Buka0M2kKNYm6rhXNiK8rAVLbO3Za+7IIUsXaXQunCjpxN5SDixzLsNgT2tat7ZkxtymdJHR1bGWGk07WFPFsxC1mxoyYHRd6rcypbpYqtoC26ddcRq3M6N9r0r0kHG2ZbdCtOxhTGtpir6yrd9Wk+q+apT3UpPrpuIY1HCTlVKloTqVG6iJPVOjenM9uU8b70BxGt3K066fK91GmRExvqIKqfJxzd+B/Qmocn9atmq+f7VrP6fadeBuUFt+aB7IQ+9mJLQIIrZmAy5XEXvlUI3YCjW56lSHU/Zu7Ne3Za2aGQPV9Jigacx63ZLsV2Aa2bNJ3YwNIhlr1QqzUqlydUOmCtDhGjpE6Ojia26Ac0ldLItoMapMaTbIcw9r23BWswyxhhXFqtUkwaI2501dOGrhwjZxEhNr2NI2wBzXhnpUbaROBQ9tOvRyx6qsOs7VdahaT0MchSEBIRbM/y6CweOb0W9cRUKjKtNlQAUatjWWJmhH+OjyeAdpizRo0TTEWLxuURkuStKgvRGu8nurSNUqW/fGOuIidKnV0oRWXctLw6xBtzHmdI62If1jzm+BFZgZaeTE3+f01KG8XTmHt5OmcLZDGy77y7jqG8ANz4acrOXJLTs37pZ0IdbBjUe1mnC7WkMuOdXilNy/Ss+MKWqGdNJRp6eJ6KGmJtO19JmoqcNkTT3Gq2kzUk2DKDU1ekt201DHU10Ne3N1KlUqTERle9ZpleCCmjW3dR2J063Iq+KefHBsRXLF1jyyrMf5ItU4ZlmdrY7VGFPdmXIC1L2RAVWqa+Ljb0Wr9vbUaFCIWo21aBgoTat7MWlc5lLRBrSLKMG+k4s4cfEEEcMaiB3TJ3R4aTwDNMQlqIuclFaNwUF9zGnT1wK/npYyPAjMVtLoWupRy1dWgL8ezXto0ji4KEO/qc/T909IkyEqOy9N4P7oCj4oUMUmnFq3mueTZpC8fxv3vltMzusn5GYmkp+ZxJu9e3jTvjcvhg/jTKVq3Bd79axmYx7Xa87TxgHcrduMOA8fzpSvxmazMszSlMairk1dLRlB+7RmQoQvHWpa4WumxmAdbdZqmnFQpzRnzBzZV9KRVVblCbMsTmBDR6YXsWS/tjVXdRy5K0NFol0D3jq2JNOnl7iLNiSZNeKameh8qbocqViH7R5eeDkrOqpP5WoaeDUuileTwoQOqM68VaE4eajTOKAoAb1K0jzYWCyYEX5dzbkZf5LjVzaI67CXIaMsHs01VfA8WmrQsIMRzcT/+vUsoTqp02dcdbFdlcUPF8Uz0AB3cSr12+uydu88sVzXiH/1muSsNDLy0n8Gq3y48DFf/NeHND7mZkjlKiUtk5bqbHk+WTmQk/yWKyNGETsonNjGTfkwSLp+xy48axnI85ZteePfidvu3pypWI1DZV1YK01orIGJVK0G9Q1kKZmLftlqsMC0OGfEFVwzceJ1RfG1Dl7csanBJVsPNpqVZWKhomzSLslJLQfuFfXgvkVdUmp15GPwMPK7jORj7T4kW/gTZ9KAK2Wacrq8Fwdq+dDRXSxWBwea+ZUSqEVo2NIM3442ArQ4FQS2fRU9ytfUJXyUhwwVFqKvWgT0tOLohZ0cO39QtjvYd3oZwf1d8WlvKpOdsdi1QgJY0WFTOkaWZ8pC8blr+4pjaCdTnCNz1w7k6MVDXLt/k6dvn/Eu6wOZUrU/260fdfVjnswQeQpMhXjBGfKPGZlknLzM67OHeL9/FQkx0STNmMgVXz9uNmrO+8AQktt3412bEB75+HHRsxGnq4q3LePEbMNiDDUywU9Xm6raaqwtUppnOs4kmLjzzrklrys1541zM+LLenK9pDv7DGxZINq7WcuSM7oVeGzhBd7h4BdFTudoUvtPJLuxHNDivtwyasSNEj4ctxVtb9ia4QE1qaY0rQbyt7zUBWpRPHxkGyzjb5ui2LtLA6qnj2NNI1aKue/Sx4VWIaXYfWwde49vYd/xbew5tp4tB+eIbfNWDRY+7U1o1MlQUp9I0ebvdixh456l7D22lRkLxnPm+hFi78Xy4OlDGRKSeJ+Vqjrj9Qsfq1AtoKvcrTygCLDqkie97k0i7+6c4sbGOVweHMGGOrXYU7suezzrkNi5Gzk9+/MuMJh7MkDE1WvKBdfaMklVYlfpisw0taCHeNtZumYyxjrzVhpQlkc7kuu0l4ptTpJDQ25auHHCtDxbtEswV7R5sbaZVLUj90p489SiKdk1+5DWdjAZY6fxsFF7HjcP5qpJTc4WqsVxh3oca+jLIL9K1Ba/20xsU9OO+nTpZ0WgVFrzjrr4yfLv0t+aOr4GrNkxkYhoL1ZtnsqGPXNZv3M1m/asYOv+1ZJr+H7nYtbumEvM4h7Ua6NJQIQFXm21WL55Omu2LGXDrmXsObKRg6d3ceT8Ya7ejeXR88e8Sn5Nek6WDFJ/MyAoXazgnHjBtYJU/VROdMt+aXI9OyeXa4vm8njiWC5378bFVv7c8w0kNTiMrOBwXvu1J9bZg6sVa3JKPO4RsUlL9C2IVtPikl018bV1Sa3ehryesqRb9yelkixpo8oc07Jlt+jtOnEBMzRNpKFpsFws2S2RgaSSzUiya83bllEk9RhAyq61vNz7HTnz17K9TD0OuzZhdwt/6nsaUKeFHkFhNtRopEWjwGL4d7bGu6URdWXCauhXmPr+xWjWviR+3fWlgVmyYO0Ilq3/RiDPYu32eazftUTALZHrC1m3ayYL1kUSMrCSVHgMqzbJ4zuXs3XPGg5IxR47u5/zN85w+9FNnr16Rkqqct46TwX200dVP4ItuPEJasEt+ansJE9QfRAh+kFqKneixnC3c3eu+QcQ18yPF/7tSBUpeFq/BTcE7FlbF06Z2HFAJqslYq0mqevxwkNko24QOe36QtRU8lr1IdGyITc0KnBCowxb9KxZYlyKaYbmjHSwo5u14ncdiDX14K1tC9Lq9YPe4znv6Uds0w7SJJuwXmRgp0cDZgXVI6Cbg4y7DrRsZ0HTwFIiBWUp4yyOwNeSRn4lxCU40ETu9w8uoUq/4MK0CyvLhG87snD1OJaum8barfPZJnK34+Aqth9cxmZZ9pv2rGTd9sWq3LZvHQdPbOfEuQNcuXWWewlxPHkRz9v3b0lNFzeV93dgC64ooVz7+daP8eMdyhMUwA9XrSMxfBB3/YO4I2DvNGzGg3piuWo34KpbDZnKXNllYs1FqaTlVauxsWE93g4eyrtJE0nsNZBnzYLJ9gzljmFVzgjYvXoObLVwYplVBb6xKU+oXSnqO5cg0NKM9Rq2XNRz5b55fR6Wa87R0nW5bt+U48YerJHGNd+3OR3a1yEkzIewfs0ZMLQVg0a2ZPAY2Y5qRvjgmvh3saZtDwcCu5YRj1uWkL4VCe5bgeAB1nToW5jhU/z5ZtFIvtu8QJb5evaf2Mjh05s5cmYHB09JnpRlf3Y352KPEXv7LLcfXiUh8TEJSU9ISU8hLTNNBfSXMqDETz7294TiF5Du93zEWO75t+FeY1/uNWrBTWlaV+s24LxHLU5XqMohyWOdO7DGtykjS1sSJ5YspVkIP9QOItWxNQlFvYjVrcJBA0d2mjmxwaYyc4vYMNLIjFpFtbGzEoNfzoDgMiVYaWTHQb2KYs/KsatoFXaWrMpyGasjvGvgH1iDjl3q06VbYyL6BTFkeHeGjQpn+NgIRo7vw6iJEZK9GDM5XJXjY8IZO60bg0cHEjGkKf1H1yNqbGuWrIlhx/71AnErR8/u5NSlfVy8flwq8zRX485z64Fo6dM7PH31mMR3z0nJeEt6rmKvMsn9mFsAVQpPWe2f4neDVSo2Q8C+On2GjeWr8m7wEC41bsZtn5ZcrtuQU641OVxBuru1M7sF1EITS8ZoGtHfwIhTYsk+NpHl79Sa5+bePNL34IqhG0cKV2a7uTMrDEozTrswvhpqeOur0VYGhj5aWvTV0qanmibddPRYH9qO82un08TbjlatXGnVugaBUq3tO3sT3L2JgG3DwCFdGDo8lGgV3N4qwMPGhMlWuR2ugj0xJoqY2cNZsGIS67cvkCW+kgMndnD60mHOXjkiQE+olvpN6fh3Hl+T6nxEUvIL3mcmk5mfRtbHdMlMVSqWVOlMSqX+KJg/xe8Gmy92DNGSSxOnc7m8J2dKufC2vWityMHpej7sq1aLzbZObDS3Y5VOSSZrGTNAR58gma76aupzrVIT4krU5aYAPa9dkf0G5dllXI4VWsWZoluEXtLkQmX/CVpF+FbNhNkaMvZqmDJBtsN0TBliVowt4/rh5++Gb1AN/NrVoW2nenQM9iE03J/wvm0ZMDiYIcNCGToyjGGjpVon9GXs5Egmz4hm6iyBuWwqG7ct48iJnQLyqCzti9x5dJ178be4/+Q2DxPu8PjZPdFOsVCvn/Im5SXpYqNy8jN/ylzV6Prry78JVqnW3FwZJTIziZu7kFvuTYm1rsaFUm5sMrbmWDUvdipgndxYYVeRSfqFxQ3oMlpDOcFixCyNYizVtGBnoXLs0LNjm4Y1a7RKMsegOJECs62BFv01dMVuFWaXri07DGzYaGglza8o8yWniF2baetAdKVydO/UgJAezejR05ceYX6E9Q6Sam3HgKiuRA0NZbhU65iJ/Zkycxiz5o1VwdyycwXHTu/g6q1T3L53mTsPrvMg/i5Pnj4i4eVTnr15RmJKIq/TXqk+3s7IlsrMTReQOQJS+dAwV4XvRxP6i8tvx+8Cq5zsVr58S9oH3h3az8MaLQWsByeKVGSbGPo1UnVLtMyYpmXCKB0jorT0mK9TnDXK+Va1kqwT+7RQw4zpGoWZoGbEADU9uqhr4aUtxl3G3v7axizQKsZ+Ywcu2Htw2EI0tbgjWwvZsFKjOHMMLZlTuixznN0Z2q65VGgAPXsF0jMikN79OhI1JJRRYwYweeow5s6fzNJVs1i/ZTl7D23izMUDXJDGcyPuAo9+iOOZLO0XSc9IevOCdylvSU5L4X3GB/GhGarJKVsqUtFNZVD6NCz97vhF5//dFZuXLX80W/6gvJBLDdtyzq4GGwqXYZOJPStl6S81tpJKLUq0ngkrS9hLZdqI5bLloOJTtWxYrWHBYk1zpmmaEqVtSFdNbdpo6FBLpGKxYSnOlKvGTff63HKtx5UKNTktOn3QvALf61qyxNSWhcUdmFvOjUl+zWXZS4X278yQ6F6MHN2fGbPGsHT5bL5fv5Q9e7dw4Mh2jp8+QOz1s1y7dZG4e9d58uyhCuib5Fckf3jLh/T3ZOaITgpM5aNs5RPXgrqU+hSwBdd+/u7AP0tV/MpS/W6NJVdehGTey8fsb9OB7+vU4Yy4gt2OtVhazJ45ZtZMtirDEMOiHKxSh0Mm5Thl7MgJwwrS/R3YpluG79WkctWKMF5d9FfdgB4iF4HSnNYY2XCsdCUV1OsunhyzdGJ/MZENQ1vW6VnKQbNhRVF7vrOvzjet/Rkxpg+Txg/m27kTBei3bN0uxv3gDk6dPsSly6cE6AVu3rlOnMzxD2XJJzyP53mizPPv3/Eh7b0s9QwVUEUvVV39R5AFhlJpRj9f/hHIX6cqPoH9Ee7vq1jlR/YHPtw4Tvyu1RwMasPR4QPZ0q4Ns2rVZGJldya5VWdCfU9WBQSw36UmNy2rcs2yGufNKnPfqQnHiriwSdOKRaKZ09SMiVbXp5+GId0F7GpxBWftq3HdyYvzVi6yb3k2aVmw1UwqVq80qwrZstqsHJtc6rGyS1emzxrNvDmTWL1mAVu2ruXg4V2cOXuUa9cvcut2LHcfxvH4h4c8ffGDLPmXvFWW/Idk0qVHZOXmSIEIUGWuV1aikiqgvyi3PyB+N9jc90m8uXqA18e2czdqLIeGj2ZN1EC2ThrFqcXfcnXDas7uXMPFiZM54OrJ+VKVeS2z/TufTqQ1DeWYsYDVKM0i9eLMkKodKVobKY0tTKp2lcA7UcqVW5W8VVW7qZwLV+v7s7WYo4y6pVghj2+wqiKrpAkbhkWzcKGMmctlUtoh05BAPXXmCDduXuZ23HUePlIq9AmJrxNl2b8h5YOY+IwMqdKCM0+fMvfjP28+/2n8/orNSibh4HfE71jB3Q3rub56I9fXbOSHvQd4fugoT8+e5NmFs7zduIv7rbtyv7oP77v25Un15tyv0oxLZrUFrA3LtKyYp2NJjLiEaPGuoQamzDKy5XiZ6sSKJz7TuT33poxmi4Mb+wzLsU7bisWFSrO2jDtrWrZhxZzJAlWW/yZl+SuVeoxLV85w994tFdTExBe8fvuK96kKUOnuOaKfP46bvwSr5E+hXP1jC/Zfg1Ual+prnQL2/vGVPDi6nmdnTxB38CCPT5/m+eXLvLp2lZexV3hx6RJJ585yoVcfHsi0leDlB0PGcrZ0dU4YVGGLljQ6sVtzDO2YZerA5KIO9Leyp0dVFxZWciF16jSeTBjBipJ2rDURfdUXVyBQF1mVZ56HN5tnz2D5sm/ZvknkaN8OFdRrN6Q53b1GfPwDkpJe8vp1UgFUGTWVLwz/FtSfwH6C+gfD/Rdglb+UTaZ4u9uxx/nhxhEeXz7O5QO7ib8qQB/eJ+nBXZ7dvs7Ta1d4FnuRx5fOcWvLSi629OOYW20edOzKSUs3juo7s1WnrOhpOeYWLss0sVPRpcvT2bE8fVo14PKiCSStWsQFkZd55jbMK1aa+WY2zLItx0zPemycMZH1axaxff1KjuzbzoUzx1Wa+uDhbRKePhaoz3kv3T5Tmd1zZCISmEpRfMr/dvxrsCLyWekfQHzeq6fxvHhwj4ykJNKlOt4/S+BtfDxJ92UJ3r7B8+uXeRMbS+bxw5z0bsT+BvVZ4y5DhDShnQJ0o64DK0ydmGTpzOBSFQmp6ExU86Z8Fz2AF8dWcffIVnYsXcCBZQs4unQu++d9w655s9m1fBF7N65hz/YNnDi0m1iRndvXL3H/wS2evXjM6zdJpEq3z8xMV323V4H6Z8fv01jl04Vs6aQZsrTSxXZ9EEP99jVpSYmkPE8g5YcnfHj8iJc3r5F9+z6rPRpxa0hvrs4YRew301jWzJ/ZtX0Y71Kd0a41Ge3VkEmt/JgXEcb2aZOJ2/wd765s5PaBrVw9fIDLB/dxae9Ozuzcwult2zizexeXjh3k8rnj3BKgT+5JlT65L3r6jGTxpQrUrKyMP7VCfx2/D6zyYgVuvkxf+Vni/6TLKnAzU1JIf/2GtESpGHmTH58+5UyvrpyeMYy4XUtJPHGAuK07Off9d2yfPoP14yewftx4Nk2dwqGlSzi3aQOXd27jpsD84cpeyYuSl3gkcvLwYkHGnTvF/YvneSxyk/D4Hs8SHpL4LJ53bxIFaLIKaJ6M2/nK53ZSqKr8UsAqoXqxyutVtEveSF5WJvniC/PS0shO+cB7sWPPT+4lbvlC8p4/5+nNq/xw6SK3dx+U3MvVLVu5tm07cfv3c+/4MZ7IYy9EPhLv3ibx3gNe3r9Bwq2bJFyPVen3kxtXeCK/I+HOTV4+ui8y9Jg3iskXX/peqjRHaU5i9PNys3/S0z+6Af0n8bvBquLTC1dVsMzRyvkDkQjl/xBkpybz5t5lPr59SdbrV7x7Es+zW7d4JK4h/tJlnl29Kjp8k3ePHvD+aQLJCU9FqxNJf/VKlWmKZr94yruEJ7yR5757+oS3z3/gXaI0pbeyX4pIjxj9dOn4WRmpIk2Z8hrErSj/YeQvGP83sL8OZfkp+iteMU+SHNHh9DQy38ks/vIlbxJk8hFISQIr+YUAkmrL+PCGLNHE7LRUORipMnikkyuykitGPjtFpqM3r0kVy5QuXjQ9+TUZKe+keYqGSoUqmZOTJStG9X/d5fj+H0+S/BfjPwMroSzBT2e/FMi5SvUqze3dO1LfviXr/XtyRS4+ZqVLlWWozjmotqoDIVCyC6qe7Gy5P0s0PFN2SRepKdg/X5Z6AcBfrHOFpRxUxYv+NbH+AWCV+ARXAZsnHlKBm5cpQJT/z5Urb135yrNUmCoVFKrrcp/qq9C/yE8r4NMS/+VzfkrZT/4p+emev2L8IWCVUOCqUgVG3q4C7kcAP+UnFL++/9epPPcvje1fxx8G9lN8Avz/e/zhYL9GQXwF+5niK9jPFF/Bfqb4CvYzxVewnym+gv1M8RXsZwn4f4j2jRYd+d9aAAAAAElFTkSuQmCC&quot;&gt;&lt;div&gt;redis&lt;/div&gt;" style="rounded=1;whiteSpace=wrap;html=1;" vertex="1" parent="1">
          <mxGeometry x="620" y="150" width="160" height="150" as="geometry" />
        </mxCell>
        <mxCell id="d-e6jIQ3wyXe82C8wbV5-61" style="edgeStyle=orthogonalEdgeStyle;rounded=0;orthogonalLoop=1;jettySize=auto;html=1;" edge="1" parent="1" source="d-e6jIQ3wyXe82C8wbV5-58" target="d-e6jIQ3wyXe82C8wbV5-60">
          <mxGeometry relative="1" as="geometry" />
        </mxCell>
        <mxCell id="d-e6jIQ3wyXe82C8wbV5-58" value="" style="rounded=1;whiteSpace=wrap;html=1;" vertex="1" parent="1">
          <mxGeometry x="550" y="-430" width="120" height="60" as="geometry" />
        </mxCell>
        <mxCell id="d-e6jIQ3wyXe82C8wbV5-59" value="Actor" style="shape=umlActor;verticalLabelPosition=bottom;verticalAlign=top;html=1;outlineConnect=0;" vertex="1" parent="1">
          <mxGeometry x="595" y="-430" width="30" height="60" as="geometry" />
        </mxCell>
        <mxCell id="d-e6jIQ3wyXe82C8wbV5-63" value="" style="edgeStyle=orthogonalEdgeStyle;rounded=0;orthogonalLoop=1;jettySize=auto;html=1;" edge="1" parent="1" source="d-e6jIQ3wyXe82C8wbV5-60" target="d-e6jIQ3wyXe82C8wbV5-62">
          <mxGeometry relative="1" as="geometry" />
        </mxCell>
        <mxCell id="d-e6jIQ3wyXe82C8wbV5-60" value="Сайт&lt;div&gt;React/Nginx&lt;/div&gt;" style="rounded=1;whiteSpace=wrap;html=1;" vertex="1" parent="1">
          <mxGeometry x="550" y="-320" width="120" height="60" as="geometry" />
        </mxCell>
        <mxCell id="d-e6jIQ3wyXe82C8wbV5-70" style="edgeStyle=orthogonalEdgeStyle;rounded=0;orthogonalLoop=1;jettySize=auto;html=1;strokeColor=#FF66B3;" edge="1" parent="1" source="d-e6jIQ3wyXe82C8wbV5-62" target="zA23MoTUsTF4_91t8viU-3">
          <mxGeometry relative="1" as="geometry">
            <Array as="points">
              <mxPoint x="390" y="-10" />
              <mxPoint x="390" y="-10" />
            </Array>
          </mxGeometry>
        </mxCell>
        <mxCell id="d-e6jIQ3wyXe82C8wbV5-71" style="edgeStyle=orthogonalEdgeStyle;rounded=0;orthogonalLoop=1;jettySize=auto;html=1;strokeColor=#FF66B3;" edge="1" parent="1" source="d-e6jIQ3wyXe82C8wbV5-62" target="d-e6jIQ3wyXe82C8wbV5-29">
          <mxGeometry relative="1" as="geometry">
            <Array as="points">
              <mxPoint x="470" y="70" />
              <mxPoint x="960" y="70" />
            </Array>
          </mxGeometry>
        </mxCell>
        <mxCell id="d-e6jIQ3wyXe82C8wbV5-62" value="APISIX&lt;div&gt;Gateway&lt;/div&gt;" style="whiteSpace=wrap;html=1;rounded=1;" vertex="1" parent="1">
          <mxGeometry x="370" y="-230" width="120" height="60" as="geometry" />
        </mxCell>
        <mxCell id="d-e6jIQ3wyXe82C8wbV5-67" value="" style="edgeStyle=orthogonalEdgeStyle;rounded=0;orthogonalLoop=1;jettySize=auto;html=1;" edge="1" parent="1" source="d-e6jIQ3wyXe82C8wbV5-64" target="d-e6jIQ3wyXe82C8wbV5-66">
          <mxGeometry relative="1" as="geometry" />
        </mxCell>
        <mxCell id="d-e6jIQ3wyXe82C8wbV5-64" value="Consul_kv" style="whiteSpace=wrap;html=1;rounded=1;" vertex="1" parent="1">
          <mxGeometry x="470" y="-215" width="120" height="30" as="geometry" />
        </mxCell>
        <mxCell id="d-e6jIQ3wyXe82C8wbV5-66" value="Consul" style="whiteSpace=wrap;html=1;rounded=1;" vertex="1" parent="1">
          <mxGeometry x="670" y="-215" width="120" height="30" as="geometry" />
        </mxCell>
      </root>
    </mxGraphModel>
  </diagram>
</mxfile>
